<svg xmlns="http://www.w3.org/2000/svg" data-name="Layer 1" viewBox="0 0 64 64"><path d="M52.43,57.43H11.57a5.5,5.5,0,0,1-5.5-5.5V22.1a5.52,5.52,0,0,1,3.08-4.93l20.43-10a5.55,5.55,0,0,1,4.84,0l20.43,10a5.52,5.52,0,0,1,3.08,4.93V51.93A5.5,5.5,0,0,1,52.43,57.43ZM32,9.57a2.46,2.46,0,0,0-1.1.25l-20.43,10a2.52,2.52,0,0,0-1.4,2.24V51.93a2.5,2.5,0,0,0,2.5,2.5H52.43a2.5,2.5,0,0,0,2.5-2.5V22.1a2.52,2.52,0,0,0-1.4-2.24L33.1,9.82A2.46,2.46,0,0,0,32,9.57Z"/><path d="M32,32.9a1.5,1.5,0,0,1-.52-.1l-13.4-5A1.5,1.5,0,1,1,19.13,25L32,29.8,44.87,25a1.5,1.5,0,0,1,1.05,2.81l-13.4,5A1.5,1.5,0,0,1,32,32.9Z"/></svg>