 <svg version="1.0" xmlns="http://www.w3.org/2000/svg" width="700.000000pt" height="700.000000pt" viewBox="0 0 700.000000 700.000000" preserveAspectRatio="xMidYMid meet">
<metadata>
Created by potrace 1.12, written by Peter Selinger 2001-2015
</metadata>
<g transform="translate(0.000000,700.000000) scale(0.100000,-0.100000)" fill="#000000" stroke="none">
<path d="M420 5084 c-111 -48 -159 -193 -97 -291 82 -129 501 -532 715 -687
28 -21 52 -42 52 -47 0 -5 -67 -96 -148 -202 -81 -106 -220 -286 -307 -401
-88 -114 -192 -250 -232 -301 -39 -51 -79 -108 -89 -127 -21 -41 -22 -134 -1
-174 20 -39 75 -90 110 -103 40 -16 132 -13 170 3 47 21 64 39 157 161 46 61
136 178 199 260 63 83 170 220 236 307 66 86 153 199 193 252 l73 96 52 -29
c275 -152 529 -258 862 -356 28 -8 72 -20 99 -25 27 -6 56 -15 66 -20 20 -11
22 3 -75 -465 -30 -148 -74 -358 -96 -465 -66 -322 -73 -369 -60 -418 35 -127
180 -188 301 -127 84 43 96 69 157 368 29 144 71 352 94 462 22 110 57 281 77
380 l37 180 45 0 c25 -1 145 -7 267 -14 181 -10 264 -10 450 0 125 7 246 13
268 14 l40 0 37 -180 c20 -99 55 -270 77 -380 23 -110 65 -318 94 -462 61
-299 73 -325 157 -368 121 -61 266 0 301 127 13 49 6 96 -60 418 -22 107 -66
317 -96 465 -31 149 -64 312 -74 363 l-18 94 21 8 c11 5 66 21 121 35 361 94
789 281 1075 469 30 20 60 36 66 36 7 0 30 -35 51 -77 534 -1049 526 -1033
559 -1067 38 -39 83 -56 148 -56 66 0 102 12 139 48 51 48 69 88 70 151 0 55
-7 71 -183 417 -101 197 -209 409 -240 469 -145 279 -192 377 -184 385 5 4 42
36 83 70 172 147 443 425 498 513 47 74 29 191 -39 254 -57 53 -159 68 -233
34 -25 -11 -75 -57 -134 -122 -467 -514 -973 -854 -1581 -1061 -734 -250
-1634 -252 -2370 -3 -173 58 -243 87 -410 167 -441 211 -822 500 -1181 897
-59 66 -109 111 -134 122 -48 22 -127 24 -175 3z"></path>
</g>
</svg>