<svg version="1.0" xmlns="http://www.w3.org/2000/svg" width="700.000000pt" height="700.000000pt" viewBox="0 0 700.000000 700.000000" preserveAspectRatio="xMidYMid meet"><metadata>Created by potrace 1.12, written by Peter Selinger 2001-2015</metadata><g transform="translate(0.000000,700.000000) scale(0.100000,-0.100000)" fill="#000000" stroke="none"><path d="M3235 5364 c-687 -67 -1302 -310 -1895 -747 -186 -137 -308 -243 -506 -441 -295 -296 -520 -588 -719 -935 -127 -222 -139 -276 -86 -386 71 -152 240 -204 388 -119 51 29 75 61 138 179 248 465 663 936 1125 1277 166 122 310 210 515 313 330 167 645 264 995 305 711 85 1425 -118 2080 -588 484 -348 927 -845 1188 -1332 50 -93 77 -126 126 -155 142 -83 308 -34 384 114 57 113 46 167 -81 387 -194 337 -416 623 -715 924 -319 322 -595 537 -947 740 -251 145 -632 304 -865 360 -339 83 -477 101 -805 105 -154 1 -298 1 -320 -1z"></path><path d="M3370 4304 c-14 -3 -64 -11 -111 -19 -385 -64 -752 -331 -942 -686 -49 -92 -105 -245 -130 -358 -30 -131 -31 -402 -3 -536 84 -404 340 -744 702 -932 387 -202 855 -198 1242 8 351 187 593 508 684 908 30 131 32 402 4 536 -113 544 -537 962 -1074 1061 -85 16 -323 27 -372 18z m326 -565 c507 -132 755 -710 500 -1163 -144 -255 -403 -406 -696 -406 -408 0 -738 292 -790 699 -50 393 203 766 590 870 107 28 287 29 396 0z"></path></g></svg>