<svg xmlns="http://www.w3.org/2000/svg" viewBox="0 0 64 64"><path fill="#222" d="M12.566,54.47a1.5,1.5,0,0,1-1.317-.783L7.381,46.578a1.5,1.5,0,0,1-.182-.717V15.5A1.5,1.5,0,0,1,8.7,14h7.735a1.5,1.5,0,0,1,1.5,1.5V45.861a1.5,1.5,0,0,1-.183.717l-3.867,7.109A1.5,1.5,0,0,1,12.566,54.47ZM10.2,45.479l2.367,4.352,2.368-4.352V17H10.2Z"/><path fill="#222" d="M16.434 22.868H8.7a1.5 1.5 0 0 1 0-3h7.735a1.5 1.5 0 0 1 0 3zM55.3 54.47H22.807a1.5 1.5 0 0 1-1.5-1.5V11.03a1.5 1.5 0 0 1 1.5-1.5H44.939a1.5 1.5 0 0 1 1.159.548l10.361 12.6a1.5 1.5 0 0 1 .342.952V52.97A1.5 1.5 0 0 1 55.3 54.47zm-30.994-3H53.8V24.17L44.23 12.53H24.307z"/><path fill="#222" d="M44.938,25.13a1.5,1.5,0,0,1-1.5-1.5V11.03a1.5,1.5,0,0,1,3,0v12.6A1.5,1.5,0,0,1,44.938,25.13Z"/><path fill="#222" d="M55.3,25.13H44.938a1.5,1.5,0,0,1,0-3H55.3a1.5,1.5,0,0,1,0,3Z"/></svg>